HIERARCHY
ROOT root
{
	OFFSET	0	13.1	24.9
	CHANNELS 6  Xposition Yposition Zposition Xrotation Yrotation Zrotation
	JOINT spine_1
	{
		OFFSET	0	9.99999	0
		CHANNELS 3  Xrotation Yrotation Zrotation
		JOINT spine_2
		{
			OFFSET	0	112	-10
			CHANNELS 3  Xrotation Yrotation Zrotation
			JOINT spine_3
			{
				OFFSET	0	206.5	19.3
				CHANNELS 3  Xrotation Yrotation Zrotation
				JOINT spine_4
				{
					OFFSET	0	110.4	14.6
					CHANNELS 3  Xrotation Yrotation Zrotation
					JOINT neck_1
					{
						OFFSET	0	71.8	-50.3
						CHANNELS 3  Xrotation Yrotation Zrotation
						JOINT neck_2
						{
							OFFSET	0	86.2	-25.8
							CHANNELS 3  Xrotation Yrotation Zrotation
							JOINT head_ee
							{
								OFFSET	0	179.8	-8.7
								CHANNELS 3  Xrotation Yrotation Zrotation
								End Site
								{
									OFFSET	1	0	0
								}
							}
						}
					}
					JOINT left_clavicle
					{
						OFFSET	-43.2	22.4	-70.8
						CHANNELS 3  Xrotation Yrotation Zrotation
						JOINT left_shoulder
						{
							OFFSET	-93.9	-5.79999	48.7
							CHANNELS 3  Xrotation Yrotation Zrotation
							JOINT left_elbow
							{
								OFFSET	-291.4	-30.8	15.2
								CHANNELS 3  Xrotation Yrotation Zrotation
								JOINT left_lowarm_twist
								{
									OFFSET	-110.7	-3.89999	13.6
									CHANNELS 3  Xrotation Yrotation Zrotation
									JOINT left_hand
									{
										OFFSET	-110.7	-3.89999	13.6
										CHANNELS 3  Xrotation Yrotation Zrotation
										JOINT left_ee
										{
											OFFSET	-80.8	-5.10001	12.1
											CHANNELS 3  Xrotation Yrotation Zrotation
											End Site
											{
												OFFSET	1	0	0
											}
										}
									}
								}
							}
						}
					}
					JOINT right_clavicle
					{
						OFFSET	43.2	22.4	-70.8
						CHANNELS 3  Xrotation Yrotation Zrotation
						JOINT right_shoulder
						{
							OFFSET	93.9	-5.79999	48.7
							CHANNELS 3  Xrotation Yrotation Zrotation
							JOINT right_elbow
							{
								OFFSET	291.4	-30.8	15.2
								CHANNELS 3  Xrotation Yrotation Zrotation
								JOINT right_lowarm_twist
								{
									OFFSET	110.7	-3.89999	13.6
									CHANNELS 3  Xrotation Yrotation Zrotation
									JOINT right_hand
									{
										OFFSET	110.7	-3.89999	13.6
										CHANNELS 3  Xrotation Yrotation Zrotation
										JOINT right_ee
										{
											OFFSET	80.8	-5.10001	12.1
											CHANNELS 3  Xrotation Yrotation Zrotation
											End Site
											{
												OFFSET	1	0	0
											}
										}
									}
								}
							}
						}
					}
				}
			}
		}
	}
	JOINT left_hip
	{
		OFFSET	-82.8	-127.5	0.300001
		CHANNELS 3  Xrotation Yrotation Zrotation
		JOINT left_knee
		{
			OFFSET	-28.2	-396.7	2.2
			CHANNELS 3  Xrotation Yrotation Zrotation
			JOINT left_ankle
			{
				OFFSET	-11.7	-411.3	35.4
				CHANNELS 3  Xrotation Yrotation Zrotation
				JOINT left_toes
				{
					OFFSET	0	-60	-88.6
					CHANNELS 3  Xrotation Yrotation Zrotation
					JOINT left_foot_ee
					{
						OFFSET	-22.5	-16.5	-42.2
						CHANNELS 3  Xrotation Yrotation Zrotation
						End Site
						{
							OFFSET	1	0	0
						}
					}
				}
			}
		}
	}
	JOINT right_hip
	{
		OFFSET	82.8	-127.5	0.300001
		CHANNELS 3  Xrotation Yrotation Zrotation
		JOINT right_knee
		{
			OFFSET	28.2	-396.7	2.2
			CHANNELS 3  Xrotation Yrotation Zrotation
			JOINT right_ankle
			{
				OFFSET	11.7	-411.3	35.4
				CHANNELS 3  Xrotation Yrotation Zrotation
				JOINT right_toes
				{
					OFFSET	0	-60	-88.6
					CHANNELS 3  Xrotation Yrotation Zrotation
					JOINT right_foot_ee
					{
						OFFSET	22.5	-16.5	-42.2
						CHANNELS 3  Xrotation Yrotation Zrotation
						End Site
						{
							OFFSET	1	0	0
						}
					}
				}
			}
		}
	}
}
MOTION
Frames: 8
Frame Time: 0.02
2789.93414432 708.2 -1604.49611668 -0.0394472815074 45.819962995 -6.62183139701 0.566223 0.280502 3.33636 0.572413 0.0677539 3.34743 0.578339 -0.604729 3.29311 0.563216 -0.0773577 3.34722 -9.93442 10.6816 14.4103 -9.39685 10.3076 16.5947 -0.0 0.0 -0.0 -4.87882 22.064 -4.34989 11.4164 -6.62729 64.5239 1.94626 -43.9488 0.785393 4.08908 0.126018 -0.50699 2.94643 18.653 26.3331 -0.0 0.0 -0.0 10.6817 25.5433 -20.4425 -19.7671 46.967 -60.6517 0.521925 14.4964 -0.0663807 59.4637 1.72641 7.05824 1.30172 -11.2203 -13.0324 0.0 0.0 0.0 4.88539 19.4426 10.4539 -21.1797 0.279751 3.21968 30.1418 26.4796 -4.16156 -11.9184 0.0 0.0 -0.0 0.0 -0.0 16.5198 35.6187 -0.0404566 -55.0486 1.68971 -7.95781 38.2605 -24.4683 4.98135 -17.5655 0.0 0.0 0.0 0.0 0.0 
2781.2521046 708.927 -1584.56521948 0.475893719346 48.0042868933 -6.96275035602 0.654197 0.229271 3.29925 0.660252 0.0189834 3.30715 0.663068 -0.63969 3.24481 0.648397 -0.119497 3.30504 -11.3376 11.1994 14.5112 -10.8124 11.6678 16.9134 -0.0 0.0 -0.0 -4.98507 21.5951 -4.62298 12.8394 -7.1884 63.8405 2.06744 -45.6781 0.870807 5.45606 0.160032 -0.678293 2.91007 16.6875 25.5543 -0.0 0.0 -0.0 10.502 24.8993 -20.1048 -22.5989 46.8809 -59.6075 0.577255 15.9583 -0.0809143 59.2465 1.70731 7.03799 1.40455 -10.9042 -13.5936 0.0 0.0 0.0 2.02556 21.1992 11.5757 -19.5318 0.300916 2.96771 31.7062 26.4777 -4.34162 -11.6168 0.0 0.0 -0.0 0.0 -0.0 21.8889 33.9853 -2.02655 -56.6242 1.84671 -8.14314 36.3754 -26.0714 4.83891 -18.4003 0.0 0.0 0.0 0.0 0.0 
2783.92961799 708.927 -1572.90293115 0.492272824138 49.6981967087 -6.98449967179 0.654197 0.229271 3.29925 0.660252 0.0189834 3.30715 0.663068 -0.63969 3.24481 0.648397 -0.119497 3.30504 -11.3376 11.1994 14.5112 -10.8124 11.6678 16.9134 -0.0 0.0 -0.0 -4.98507 21.5951 -4.62298 12.8394 -7.1884 63.8405 2.06744 -45.6781 0.870807 5.45606 0.160032 -0.678293 2.91007 16.6875 25.5543 -0.0 0.0 -0.0 10.502 24.8993 -20.1048 -22.5989 46.8809 -59.6075 0.577255 15.9583 -0.0809143 59.2465 1.70731 7.03799 1.40455 -10.9042 -13.5936 0.0 0.0 0.0 2.02556 21.1992 11.5757 -19.5318 0.300916 2.96771 31.7062 26.4777 -4.34162 -11.6168 0.0 0.0 -0.0 0.0 -0.0 21.8889 33.9853 -2.02655 -56.6242 1.84671 -8.14314 36.3754 -26.0714 4.83891 -18.4003 0.0 0.0 0.0 0.0 0.0 
2767.46983373 712.619 -1547.43780932 0.423750834933 50.8523138568 -7.02515685779 0.775723 0.455821 3.16694 0.781266 0.253482 3.1895 0.797089 -0.378632 3.17709 0.783027 0.127616 3.197 -15.1658 10.4138 15.4002 -14.5891 10.8154 17.8753 -0.0 0.0 -0.0 -5.61805 20.408 -5.87013 14.8266 -8.3288 63.4915 2.22171 -47.7347 0.983113 4.35315 0.132908 -0.540019 2.58606 17.4393 23.5555 -0.0 0.0 -0.0 10.0145 20.8021 -19.3754 -25.2762 46.0083 -57.3352 0.576831 15.9472 -0.0807978 59.0938 1.69391 7.0237 1.46354 -10.1288 -13.7033 0.0 0.0 0.0 -0.214085 17.7879 14.1865 -17.3112 0.317956 2.62745 30.018 27.5922 -4.17779 -12.5604 0.0 0.0 -0.0 0.0 -0.0 30.2666 33.0794 -6.23374 -54.5072 1.63695 -7.89315 31.9038 -26.6923 4.37018 -16.5918 0.0 0.0 0.0 0.0 0.0 
2739.86876754 716.201 -1528.19112399 -0.741209744053 53.0832026778 -5.26497425635 1.0927 0.57548 3.19482 1.09831 0.371127 3.22493 1.12058 -0.251787 3.23642 1.10606 0.26223 3.23559 -20.2478 9.53424 14.3809 -19.8253 11.1743 17.2583 -0.0 0.0 -0.0 -6.14946 20.7589 -6.56432 17.0772 -8.72861 62.4508 2.7637 -53.8447 1.40366 4.37184 0.13339 -0.542358 2.40801 12.2891 20.7788 -0.0 0.0 -0.0 10.3563 17.4228 -20.3679 -27.6462 44.0775 -56.2793 0.428509 11.9845 -0.0449799 58.8667 1.67408 7.00241 1.66323 -10.7889 -15.2622 0.0 0.0 0.0 -4.47951 17.6031 16.4619 -9.75324 0.277065 1.46937 26.2625 29.6084 -3.77634 -14.2342 0.0 0.0 -0.0 0.0 -0.0 36.5633 31.0532 -10.0668 -48.8029 1.11952 -7.18339 30.1115 -26.7347 4.1649 -15.8631 0.0 0.0 0.0 0.0 0.0 
2741.88134347 716.201 -1522.10154108 -0.755319635888 53.8831018549 -5.24741812164 1.0927 0.57548 3.19482 1.09831 0.371127 3.22493 1.12058 -0.251787 3.23642 1.10606 0.26223 3.23559 -20.2478 9.53424 14.3809 -19.8253 11.1743 17.2583 -0.0 0.0 -0.0 -6.14946 20.7589 -6.56432 17.0772 -8.72861 62.4508 2.7637 -53.8447 1.40366 4.37184 0.13339 -0.542358 2.40801 12.2891 20.7788 -0.0 0.0 -0.0 10.3563 17.4228 -20.3679 -27.6462 44.0775 -56.2793 0.428509 11.9845 -0.0449799 58.8667 1.67408 7.00241 1.66323 -10.7889 -15.2622 0.0 0.0 0.0 -4.47951 17.6031 16.4619 -9.75324 0.277065 1.46937 26.2625 29.6084 -3.77634 -14.2342 0.0 0.0 -0.0 0.0 -0.0 36.5633 31.0532 -10.0668 -48.8029 1.11952 -7.18339 30.1115 -26.7347 4.1649 -15.8631 0.0 0.0 0.0 0.0 0.0 
2711.54788671 712.777 -1500.78072104 -2.6579582397 54.532507847 -3.71256695896 1.37636 0.5802 3.22665 1.38207 0.373816 3.25698 1.40427 -0.239071 3.26962 1.38947 0.280022 3.26637 -21.3884 9.8953 13.6217 -21.0916 12.5454 16.9004 -0.0 0.0 -0.0 -6.12203 22.0135 -6.15766 18.3207 -8.20787 62.1265 3.10538 -56.9615 1.68502 4.26258 0.130562 -0.528686 2.30841 9.05587 19.0077 -0.0 0.0 -0.0 9.99909 16.5798 -19.6153 -28.6063 41.782 -56.2221 0.388048 10.8813 -0.0369593 58.9648 1.68263 7.01161 1.89758 -10.4903 -16.7213 0.0 0.0 0.0 -6.50214 18.8092 17.7374 -8.69046 0.259077 1.30728 24.8428 27.9996 -3.55481 -14.6186 0.0 0.0 -0.0 0.0 -0.0 39.0463 30.1298 -10.9241 -37.7663 0.330811 -5.68303 28.0027 -27.0018 3.92142 -17.5384 0.0 0.0 0.0 0.0 0.0 
2693.85796829 706.812 -1499.9785073 -2.64623282241 53.970044153 -3.85249325888 1.45129 0.653502 3.23656 1.45701 0.44634 3.27153 1.4834 -0.165848 3.29764 1.4684 0.356747 3.2825 -21.9559 10.6476 13.6268 -21.7367 14.1423 17.3418 -0.0 0.0 -0.0 -5.98341 23.8087 -5.43636 18.9101 -8.14962 61.7838 3.53989 -60.2902 2.05616 2.75918 0.0890115 -0.341145 2.20937 5.82872 17.17 -0.0 0.0 -0.0 9.63038 15.6972 -18.8407 -27.9997 40.9134 -57.3736 0.292183 8.23592 -0.0210361 59.114 1.69569 7.0256 2.0246 -10.1046 -17.4417 0.0 0.0 0.0 -9.72358 22.2661 19.5865 -5.2395 0.17999 0.783685 22.1686 28.7552 -3.22629 -14.1332 0.0 0.0 -0.0 0.0 -0.0 40.6828 29.4356 -11.6568 -34.6636 0.162625 -5.237 27.1995 -26.3136 3.80709 -18.735 0.0 0.0 0.0 0.0 0.0 
